#!OML:ASF H:\ManfredETheater\Project 1\Capture day 1\Session 1\subject.ASF
:FULLY-SPECIFIED
:DEGREES
170
root -8.09969 14.7553 -26.5354 -194.821 -25.5796 185.767
lowerback 20.1196 2.59429 4.37791
upperback 2.19135 4.29353 3.42302
thorax -8.80968 1.77618 0.103327
lowerneck -15.466 -4.57098 -4.89625
upperneck 8.43314 -5.56663 3.69466
head 5.29001 -2.62689 1.44089
rclavicle 1.42876e-016 5.04913e-014
rhumerus -34.8263 39.2235 -109.468
rradius 104.193
rwrist 3.57247
rhand -26.0079 14.4816
rfingers 7.12502
rthumb 0.538084 -15.4975
lclavicle 1.42876e-016 5.04913e-014
lhumerus -43.8303 -16.4447 103.434
lradius 87.8215
lwrist 1.4683
lhand -17.7107 -11.8575
lfingers 7.12502
lthumb 8.5495 17.9494
rfemur -22.1893 -3.07942 19.5352
rtibia 98.1191
rfoot 6.64268 16.0701
rtoes -2.91737
lfemur -50.432 -4.97985 -15.3317
ltibia 67.8353
lfoot -2.58435 -7.68594
ltoes -4.99164
171
root -8.21842 14.8226 -26.6984 -194.475 -25.3508 185.262
lowerback 19.9203 2.45365 4.11584
upperback 2.03237 4.06079 3.27964
thorax -8.8898 1.68137 0.160673
lowerneck -15.5822 -4.4007 -4.77642
upperneck 8.80547 -5.36503 3.68223
head 5.41398 -2.52246 1.43242
rclavicle -9.50439e-016 -4.13472e-014
rhumerus -35.591 38.511 -108.671
rradius 103.566
rwrist 2.62152
rhand -25.9852 14.2575
rfingers 7.12502
rthumb 0.560038 -15.7215
lclavicle -9.50439e-016 -4.13472e-014
lhumerus -43.1954 -15.2598 102.632
lradius 86.9521
lwrist 1.56006
lhand -18.4731 -11.6101
lfingers 7.12502
lthumb 7.8137 18.2256
rfemur -22.8762 -3.3542 18.792
rtibia 98.5932
rfoot 9.09925 15.2135
rtoes -3.87867
lfemur -49.7613 -4.93609 -15.9209
ltibia 68.1575
lfoot -3.50521 -7.14808
ltoes -4.7083
172
root -8.33096 14.8958 -26.8549 -194.111 -25.1562 184.847
lowerback 19.7015 2.27723 3.90421
upperback 1.8611 3.79263 3.15986
thorax -8.97032 1.56791 0.225101
lowerneck -15.7331 -4.20679 -4.63989
upperneck 9.17468 -5.13142 3.6468
head 5.54071 -2.40326 1.41712
rclavicle -2.48605e-014 5.84427e-014
rhumerus -36.1997 37.7439 -107.687
rradius 102.596
rwrist 1.77516
rhand -25.8626 13.8557
rfingers 7.12502
rthumb 0.678455 -16.123
lclavicle -2.48605e-014 5.84427e-014
lhumerus -42.682 -13.9836 101.836
lradius 86.1737
lwrist 1.72272
lhand -19.3581 -11.3906
lfingers 7.12502
lthumb 6.95943 18.475
rfemur -23.6586 -3.83212 18.1851
rtibia 99.0087
rfoot 10.2761 14.2131
rtoes -6.22882
lfemur -49.1223 -4.91284 -16.4238
ltibia 68.3341
lfoot -4.31762 -6.6771
ltoes -4.47042
173
root -8.43781 14.9751 -27.0048 -193.741 -24.9733 184.489
lowerback 19.4802 2.08142 3.72601
upperback 1.69608 3.50497 3.05916
thorax -9.04063 1.44361 0.296491
lowerneck -15.9187 -3.99798 -4.47679
upperneck 9.51853 -4.87638 3.56992
head 5.66308 -2.27556 1.3868
rclavicle -2.18182e-014 -1.11319e-014
rhumerus -36.6458 36.9166 -106.542
rradius 101.294
rwrist 1.05695
rhand -25.6657 13.3041
rfingers 7.12502
rthumb 0.868635 -16.6739
lclavicle -2.18182e-014 -1.11319e-014
lhumerus -42.2708 -12.6619 101.053
lradius 85.4808
lwrist 1.92888
lhand -20.3284 -11.2197
lfingers 7.12502
lthumb 6.02273 18.6747
rfemur -24.4959 -4.46718 17.7026
rtibia 99.3195
rfoot 10.1385 13.0794
rtoes -9.38501
lfemur -48.4805 -4.88324 -16.867
ltibia 68.375
lfoot -5.05233 -6.2707
ltoes -4.28374
174
root -8.539 15.0599 -27.1483 -193.37 -24.8101 184.19
lowerback 19.2677 1.86702 3.59003
upperback 1.53704 3.20102 2.97369
thorax -9.10659 1.30938 0.364294
lowerneck -16.1602 -3.77945 -4.32494
upperneck 9.86622 -4.60459 3.4968
head 5.79644 -2.13943 1.3609
rclavicle 9.74961e-014 -8.74653e-015
rhumerus -36.9338 36.0246 -105.27
rradius 99.6673
rwrist 0.423383
rhand -25.4081 12.6383
rfingers 7.12502
rthumb 1.11741 -17.3385
lclavicle 9.74961e-014 -8.74653e-015
lhumerus -41.9448 -11.3408 100.281
lradius 84.8482
lwrist 2.15661
lhand -21.3385 -11.0792
lfingers 7.12502
lthumb 5.04753 18.8407
rfemur -25.3554 -5.24735 17.3638
rtibia 99.4712
rfoot 8.79388 11.7359
rtoes -12.9119
lfemur -47.8306 -4.85058 -17.2499
ltibia 68.2864
lfoot -5.70544 -5.92673
ltoes -4.02344
175
root -8.63446 15.1497 -27.2861 -193.002 -24.658 183.939
lowerback 19.0613 1.64474 3.47942
upperback 1.391 2.89059 2.90467
thorax -9.16015 1.1706 0.436792
lowerneck -16.4374 -3.56075 -4.15541
upperneck 10.1929 -4.33014 3.3896
head 5.9286 -2.00384 1.32199
rclavicle 1.19333e-014 -2.66371e-014
rhumerus -37.0725 35.0568 -103.9
rradius 97.7295
rwrist -0.136787
rhand -25.1081 11.8532
rfingers 7.12502
rthumb 1.40718 -18.1219
lclavicle 1.19333e-014 -2.66371e-014
lhumerus -41.68 -10.0628 99.53
lradius 84.2442
lwrist 2.41616
lhand -22.364 -10.9635
lfingers 7.12502
lthumb 4.05727 18.9776
rfemur -26.2223 -6.1284 17.1767
rtibia 99.4221
rfoot 6.53578 10.097
rtoes -16.5405
lfemur -47.1633 -4.80969 -17.5772
ltibia 68.076
lfoot -6.29289 -5.64301
ltoes -3.75627
176
root -8.72501 15.2438 -27.4179 -192.639 -24.502 183.715
lowerback 18.8709 1.4255 3.39012
upperback 1.26034 2.58717 2.84603
thorax -9.20405 1.0337 0.505857
lowerneck -16.7328 -3.34822 -3.97192
upperneck 10.4864 -4.06072 3.24617
head 6.05332 -1.87319 1.26942
rclavicle -6.96368e-015 -9.54166e-015
rhumerus -37.0697 33.9939 -102.453
rradius 95.5008
rwrist -0.674487
rhand -24.7417 10.932
rfingers 7.12502
rthumb 1.76101 -19.0405
lclavicle -6.96368e-015 -9.54166e-015
lhumerus -41.4519 -8.85899 98.8045
lradius 83.6353
lwrist 2.70507
lhand -23.3792 -10.8057
lfingers 7.12502
lthumb 3.07687 19.1519
rfemur -27.0854 -7.05266 17.1292
rtibia 99.1343
rfoot 3.759 8.16646
rtoes -19.9012
lfemur -46.4675 -4.75746 -17.8648
ltibia 67.752
lfoot -6.82044 -5.40204
ltoes -3.50353
177
root -8.81149 15.3412 -27.5439 -192.283 -24.3363 183.513
lowerback 18.6995 1.21685 3.31955
upperback 1.14335 2.30073 2.79771
thorax -9.24215 0.903544 0.570253
lowerneck -17.0271 -3.1463 -3.77147
upperneck 10.7421 -3.80236 3.05807
head 6.16611 -1.75125 1.19949
rclavicle -4.08565e-014 3.97569e-015
rhumerus -36.9489 32.8224 -100.954
rradius 93.0055
rwrist -1.19522
rhand -24.3406 9.82068
rfingers 7.12502
rthumb 2.14844 -20.1482
lclavicle -4.08565e-014 3.97569e-015
lhumerus -41.2408 -7.75165 98.1139
lradius 82.9863
lwrist 3.0348
lhand -24.3646 -10.5829
lfingers 7.12502
lthumb 2.12526 19.3862
rfemur -27.9394 -7.96865 17.2104
rtibia 98.5832
rfoot 0.839643 6.03685
rtoes -22.7119
lfemur -45.7438 -4.70546 -18.1192
ltibia 67.3291
lfoot -7.29395 -5.17999
ltoes -3.24359
